<svg xmlns="http://www.w3.org/2000/svg" xmlns:xlink="http://www.w3.org/1999/xlink" width="1366" zoomAndPan="magnify" viewBox="0 0 1024.5 576" height="768" preserveAspectRatio="xMidYMid meet" version="1.0"><defs><g/><clipPath id="c749dbcf4c"><path d="M 137.65625 427.273438 L 376.679688 427.273438 L 376.679688 508.003906 L 137.65625 508.003906 Z M 137.65625 427.273438 " clip-rule="nonzero"/></clipPath><clipPath id="0bdbbd8347"><path d="M 200 283.863281 L 450 283.863281 L 450 427 L 200 427 Z M 200 283.863281 " clip-rule="nonzero"/></clipPath><clipPath id="9aa475b9d2"><path d="M 273.664062 470.03125 L 335.945312 470.03125 L 335.945312 508.003906 L 273.664062 508.003906 Z M 273.664062 470.03125 " clip-rule="nonzero"/></clipPath><clipPath id="d55b1fa1ab"><path d="M 333.25 427.273438 L 512.632812 427.273438 L 512.632812 472.386719 L 333.25 472.386719 Z M 333.25 427.273438 " clip-rule="nonzero"/></clipPath><clipPath id="5faf243873"><path d="M 182.574219 162.726562 L 467.703125 162.726562 L 467.703125 427.863281 L 182.574219 427.863281 Z M 182.574219 162.726562 " clip-rule="nonzero"/></clipPath><clipPath id="4ae729727d"><path d="M 287 67.953125 L 367.03125 67.953125 L 367.03125 148 L 287 148 Z M 287 67.953125 " clip-rule="nonzero"/></clipPath></defs><g clip-path="url(#c749dbcf4c)"><path fill="#fffaeb" d="M 137.65625 432.785156 C 180.351562 424.050781 225.257812 426.375 266.820312 439.46875 C 308.386719 452.566406 346.515625 476.402344 376.496094 508.027344 C 312.359375 465.304688 230.765625 449.25 154.4375 459.890625 L 137.65625 432.785156 " fill-opacity="1" fill-rule="nonzero"/></g><g clip-path="url(#0bdbbd8347)"><path fill="#fffaeb" d="M 449.851562 417.761719 C 438.242188 414.433594 424.917969 412.75 409.722656 413.734375 C 433.726562 343.628906 338.5625 331.339844 325.144531 283.863281 C 311.730469 331.339844 216.5625 343.628906 240.566406 413.734375 C 225.371094 412.75 212.046875 414.433594 200.4375 417.761719 C 220.0625 418.609375 239.589844 421.671875 258.515625 426.929688 C 226.898438 375.847656 302.398438 340.957031 325.144531 320.3125 C 347.890625 340.957031 423.390625 375.847656 391.777344 426.929688 C 410.699219 421.671875 430.226562 418.609375 449.851562 417.761719 " fill-opacity="1" fill-rule="nonzero"/></g><g clip-path="url(#9aa475b9d2)"><path fill="#fffaeb" d="M 319.222656 470.054688 C 302.695312 480.925781 287.402344 493.671875 273.792969 508.027344 C 293.128906 495.148438 314.054688 484.695312 335.941406 476.664062 C 330.4375 474.300781 324.863281 472.097656 319.222656 470.054688 " fill-opacity="1" fill-rule="nonzero"/></g><g clip-path="url(#d55b1fa1ab)"><path fill="#fffaeb" d="M 383.46875 439.472656 C 366.035156 444.964844 349.207031 452.351562 333.328125 461.40625 C 338.699219 464.804688 343.949219 468.390625 349.058594 472.171875 C 396.191406 457.191406 447.09375 453.09375 495.851562 459.890625 L 512.632812 432.785156 C 469.9375 424.050781 425.03125 426.375 383.46875 439.472656 " fill-opacity="1" fill-rule="nonzero"/></g><g clip-path="url(#5faf243873)"><path fill="#8f5e36" d="M 459.105469 307.90625 C 453.800781 307.75 448.496094 307.578125 443.191406 307.417969 C 443.097656 306.054688 442.992188 304.691406 442.84375 303.332031 C 442.382812 299.152344 441.792969 294.976562 440.910156 290.863281 C 440.058594 286.742188 438.996094 282.660156 437.710938 278.660156 C 436.4375 274.65625 435.007812 270.703125 433.367188 266.851562 C 431.734375 262.996094 429.96875 259.199219 428.011719 255.515625 C 426.070312 251.824219 423.996094 248.207031 421.75 244.71875 C 417.300781 237.710938 412.339844 231.082031 407.046875 224.789062 C 404.382812 221.65625 401.652344 218.589844 398.8125 215.636719 C 395.984375 212.675781 393.0625 209.816406 390.085938 207.027344 C 384.128906 201.449219 377.917969 196.191406 371.492188 191.234375 C 365.066406 186.273438 358.394531 181.664062 351.554688 177.308594 C 348.132812 175.136719 344.664062 173.03125 341.125 171.007812 C 339.355469 169.992188 337.574219 168.996094 335.761719 168.019531 L 333.015625 166.566406 L 331.605469 165.847656 L 330.054688 165.085938 L 325.265625 162.722656 L 320.246094 165.113281 C 318.191406 166.089844 316.429688 167.03125 314.59375 168.011719 C 312.78125 168.988281 311 169.984375 309.230469 170.996094 C 305.695312 173.023438 302.222656 175.128906 298.800781 177.300781 C 291.957031 181.652344 285.300781 186.28125 278.855469 191.214844 C 272.425781 196.171875 266.210938 201.429688 260.257812 207.011719 C 254.304688 212.585938 248.589844 218.476562 243.285156 224.761719 C 237.988281 231.054688 233.03125 237.6875 228.578125 244.699219 C 226.339844 248.191406 224.25 251.800781 222.304688 255.492188 C 220.347656 259.175781 218.582031 262.972656 216.949219 266.832031 C 215.308594 270.6875 213.875 274.640625 212.605469 278.648438 C 211.316406 282.644531 210.265625 286.730469 209.390625 290.847656 C 208.507812 294.964844 207.917969 299.144531 207.457031 303.324219 C 207.3125 304.667969 207.207031 306.011719 207.117188 307.359375 L 203.53125 307.457031 L 191.253906 307.84375 L 182.574219 308.117188 L 182.960938 316.136719 C 183.1875 320.792969 183.367188 325.449219 183.636719 330.101562 L 184.394531 344.070312 L 185.253906 358.035156 C 185.527344 362.691406 185.878906 367.347656 186.203125 372 C 186.515625 376.65625 186.882812 381.3125 187.25 385.964844 C 187.597656 390.621094 188.015625 395.277344 188.414062 399.933594 L 189.054688 406.914062 C 189.273438 409.242188 189.480469 411.570312 189.738281 413.898438 L 190.46875 420.882812 C 190.699219 423.207031 190.976562 425.535156 191.253906 427.863281 C 191.53125 425.535156 191.8125 423.207031 192.042969 420.882812 L 192.773438 413.898438 C 193.027344 411.570312 193.238281 409.242188 193.457031 406.914062 L 194.09375 399.933594 C 194.496094 395.277344 194.910156 390.621094 195.257812 385.964844 C 195.628906 381.3125 195.996094 376.65625 196.308594 372 C 196.628906 367.347656 196.980469 362.691406 197.253906 358.035156 L 198.113281 344.070312 L 198.875 330.101562 C 198.976562 328.292969 199.0625 326.488281 199.148438 324.679688 L 203.53125 324.816406 L 215.804688 325.152344 L 224.226562 325.386719 L 224.820312 316.363281 C 225.058594 312.785156 225.378906 309.214844 225.949219 305.683594 C 226.53125 302.152344 227.203125 298.640625 228.140625 295.191406 C 229.046875 291.734375 230.058594 288.304688 231.304688 284.945312 C 232.527344 281.582031 233.878906 278.257812 235.425781 275.011719 C 236.957031 271.761719 238.605469 268.558594 240.429688 265.4375 C 242.25 262.320312 244.121094 259.222656 246.179688 256.226562 C 250.25 250.210938 254.796875 244.476562 259.683594 239.003906 C 262.144531 236.277344 264.679688 233.605469 267.269531 230.984375 C 269.859375 228.363281 272.546875 225.820312 275.292969 223.339844 C 280.785156 218.371094 286.546875 213.664062 292.523438 209.21875 C 298.476562 204.742188 304.625 200.5 310.941406 196.542969 C 314.101562 194.566406 317.300781 192.648438 320.527344 190.824219 C 322.078125 189.949219 323.632812 189.09375 325.191406 188.265625 C 326.742188 189.089844 328.292969 189.945312 329.839844 190.816406 C 333.066406 192.640625 336.261719 194.554688 339.421875 196.535156 C 345.746094 200.484375 351.878906 204.75 357.851562 209.195312 C 363.832031 213.644531 369.59375 218.351562 375.085938 223.320312 C 377.832031 225.804688 380.515625 228.347656 383.109375 230.964844 C 385.699219 233.59375 388.257812 236.238281 390.703125 238.976562 C 395.589844 244.453125 400.140625 250.1875 404.210938 256.207031 C 406.265625 259.203125 408.152344 262.296875 409.976562 265.414062 C 411.800781 268.535156 413.449219 271.738281 414.980469 274.992188 C 416.527344 278.238281 417.878906 281.5625 419.101562 284.929688 C 420.351562 288.289062 421.351562 291.722656 422.277344 295.175781 C 423.214844 298.632812 423.886719 302.144531 424.46875 305.675781 C 425.039062 309.210938 425.359375 312.78125 425.59375 316.363281 L 426.179688 325.292969 L 434.554688 325.097656 C 440.128906 324.972656 445.703125 324.792969 451.273438 324.613281 L 451.550781 329.984375 L 452.300781 343.832031 L 453.160156 357.675781 C 453.429688 362.292969 453.789062 366.90625 454.101562 371.523438 L 454.601562 378.445312 L 455.140625 385.371094 C 455.484375 389.984375 455.902344 394.601562 456.292969 399.214844 L 456.925781 406.140625 C 457.140625 408.449219 457.355469 410.753906 457.605469 413.0625 L 458.328125 419.988281 C 458.554688 422.292969 458.832031 424.601562 459.105469 426.910156 C 459.378906 424.601562 459.65625 422.292969 459.882812 419.988281 L 460.605469 413.0625 C 460.855469 410.753906 461.070312 408.449219 461.285156 406.140625 L 461.917969 399.214844 C 462.308594 394.601562 462.726562 389.984375 463.070312 385.371094 L 463.609375 378.445312 L 464.109375 371.523438 C 464.421875 366.90625 464.785156 362.292969 465.050781 357.675781 L 465.910156 343.832031 L 466.660156 329.984375 L 467.015625 323.058594 L 467.335938 316.136719 L 467.703125 308.164062 L 459.105469 307.90625 " fill-opacity="1" fill-rule="nonzero"/></g><g clip-path="url(#4ae729727d)"><path fill="#fffaeb" d="M 298.929688 79.613281 C 306.53125 72.007812 316.441406 68.144531 326.398438 67.953125 C 320.511719 69.347656 314.917969 72.304688 310.328125 76.894531 C 297.132812 90.082031 297.140625 111.472656 310.328125 124.65625 C 323.515625 137.847656 344.902344 137.847656 358.089844 124.660156 C 362.679688 120.066406 365.632812 114.476562 367.03125 108.589844 C 366.84375 118.546875 362.980469 128.457031 355.378906 136.054688 C 339.785156 151.640625 314.515625 151.640625 298.929688 136.054688 C 283.34375 120.464844 283.34375 95.195312 298.929688 79.613281 Z M 298.929688 79.613281 " fill-opacity="1" fill-rule="nonzero"/></g><path fill="#fffaeb" d="M 330.957031 80.546875 L 332.96875 91.964844 L 323.820312 99.074219 L 335.289062 100.6875 L 339.226562 111.589844 L 344.308594 101.171875 L 355.894531 100.804688 L 347.554688 92.75 L 350.78125 81.617188 L 340.546875 87.0625 Z M 330.957031 80.546875 " fill-opacity="1" fill-rule="nonzero"/><g fill="#6d412a" fill-opacity="1"><g transform="translate(484.196544, 330.513993)"><g><path d="M 43.484375 -0.828125 C 44.910156 -0.828125 46.007812 -1.179688 46.78125 -1.890625 C 48.039062 -3.148438 48.695312 -4.492188 48.75 -5.921875 L 48.75 -26.875 L 22.109375 -26.875 L 22.109375 -6 C 22.109375 -4.570312 22.628906 -3.351562 23.671875 -2.34375 C 24.710938 -1.332031 25.945312 -0.828125 27.375 -0.828125 L 28.359375 -0.828125 L 28.4375 0 L 3.453125 0 L 3.453125 -0.828125 L 4.515625 -0.828125 C 5.941406 -0.828125 7.160156 -1.332031 8.171875 -2.34375 C 9.191406 -3.351562 9.726562 -4.570312 9.78125 -6 L 9.78125 -51.546875 C 9.726562 -52.960938 9.191406 -54.175781 8.171875 -55.1875 C 7.160156 -56.207031 5.941406 -56.71875 4.515625 -56.71875 L 3.453125 -56.71875 L 3.453125 -57.546875 L 28.4375 -57.546875 L 28.359375 -56.71875 L 27.375 -56.71875 C 25.945312 -56.71875 24.710938 -56.207031 23.671875 -55.1875 C 22.628906 -54.175781 22.109375 -52.960938 22.109375 -51.546875 L 22.109375 -30.421875 L 48.75 -30.421875 L 48.75 -51.546875 C 48.695312 -52.960938 48.160156 -54.175781 47.140625 -55.1875 C 46.128906 -56.207031 44.910156 -56.71875 43.484375 -56.71875 L 42.421875 -56.71875 L 42.421875 -57.546875 L 67.40625 -57.546875 L 67.40625 -56.71875 L 66.34375 -56.71875 C 64.914062 -56.71875 63.679688 -56.207031 62.640625 -55.1875 C 61.597656 -54.175781 61.078125 -52.960938 61.078125 -51.546875 L 61.078125 -6 C 61.078125 -4.570312 61.597656 -3.351562 62.640625 -2.34375 C 63.679688 -1.332031 64.914062 -0.828125 66.34375 -0.828125 L 67.40625 -0.828125 L 67.40625 0 L 42.421875 0 L 42.421875 -0.828125 Z M 43.484375 -0.828125 "/></g></g></g><g fill="#6d412a" fill-opacity="1"><g transform="translate(563.199111, 330.513993)"><g><path d="M 60.65625 -0.828125 L 61.40625 -0.828125 L 61.40625 0 L 35.171875 0 L 35.171875 -0.828125 L 35.921875 -0.828125 C 37.128906 -0.828125 38.019531 -1.195312 38.59375 -1.9375 C 39.164062 -2.675781 39.453125 -3.375 39.453125 -4.03125 C 39.453125 -4.6875 39.316406 -5.34375 39.046875 -6 L 35.015625 -16.109375 L 15.78125 -16.109375 L 11.5 -6 C 11.226562 -5.289062 11.09375 -4.617188 11.09375 -3.984375 C 11.09375 -3.359375 11.394531 -2.675781 12 -1.9375 C 12.601562 -1.195312 13.503906 -0.828125 14.703125 -0.828125 L 15.375 -0.828125 L 15.375 0 L -2.21875 0 L -2.21875 -0.828125 L -1.484375 -0.828125 C -0.222656 -0.828125 1.035156 -1.207031 2.296875 -1.96875 C 3.554688 -2.738281 4.597656 -3.890625 5.421875 -5.421875 L 24.40625 -48.421875 C 26.988281 -53.847656 28.359375 -57.4375 28.515625 -59.1875 L 29.265625 -59.1875 L 53.671875 -5.59375 C 54.492188 -4 55.535156 -2.804688 56.796875 -2.015625 C 58.054688 -1.222656 59.34375 -0.828125 60.65625 -0.828125 Z M 17.171875 -19.5625 L 33.609375 -19.5625 L 25.640625 -39.78125 Z M 17.171875 -19.5625 "/></g></g></g><g fill="#6d412a" fill-opacity="1"><g transform="translate(630.28142, 330.513993)"><g><path d="M 77.84375 -0.828125 L 79.15625 -0.828125 L 79.15625 0 L 54.5 0 L 54.5 -0.734375 L 55.734375 -0.734375 C 56.660156 -0.796875 57.453125 -1.179688 58.109375 -1.890625 C 58.773438 -2.597656 59.050781 -3.394531 58.9375 -4.28125 L 55.734375 -34.109375 L 40.28125 -7.484375 C 38.25 -4.085938 37.207031 -1.046875 37.15625 1.640625 L 36.328125 1.640625 L 15.203125 -33.875 L 12 -4.28125 C 11.894531 -3.394531 12.171875 -2.582031 12.828125 -1.84375 C 13.484375 -1.101562 14.273438 -0.734375 15.203125 -0.734375 L 16.4375 -0.734375 L 16.4375 0 L -0.734375 0 L -0.734375 -0.828125 L 0.578125 -0.828125 C 2.109375 -0.828125 3.4375 -1.289062 4.5625 -2.21875 C 5.6875 -3.144531 6.359375 -4.40625 6.578125 -6 L 13.40625 -58.6875 L 14.140625 -58.6875 L 39.625 -16.765625 L 64.125 -58.6875 L 64.859375 -58.6875 L 71.84375 -6 C 72.113281 -4.40625 72.8125 -3.144531 73.9375 -2.21875 C 75.0625 -1.289062 76.363281 -0.828125 77.84375 -0.828125 Z M 77.84375 -0.828125 "/></g></g></g><g fill="#6d412a" fill-opacity="1"><g transform="translate(716.847209, 330.513993)"><g><path d="M 4.84375 -59.109375 C 5.664062 -58.773438 7.101562 -58.441406 9.15625 -58.109375 C 11.21875 -57.785156 12.671875 -57.625 13.515625 -57.625 C 14.367188 -57.625 14.796875 -57.625 14.796875 -57.625 L 41.015625 -57.625 C 43.316406 -57.625 45.257812 -57.757812 46.84375 -58.03125 C 48.4375 -58.3125 49.375 -58.53125 49.65625 -58.6875 L 49.65625 -57.953125 L 19.234375 -3.453125 L 36.5 -3.453125 C 40.007812 -3.453125 43.0625 -4.628906 45.65625 -6.984375 C 48.257812 -9.335938 50.113281 -12.515625 51.21875 -16.515625 L 52.03125 -16.515625 L 49.078125 0 L 3.703125 0 L 3.703125 -0.734375 L 33.875 -54.171875 L 13.96875 -54.171875 C 10.519531 -54.117188 8.082031 -52.773438 6.65625 -50.140625 C 6 -48.878906 5.671875 -47.425781 5.671875 -45.78125 L 5.671875 -44.796875 L 4.84375 -44.796875 Z M 4.84375 -59.109375 "/></g></g></g><g fill="#6d412a" fill-opacity="1"><g transform="translate(779.408041, 330.513993)"><g><path d="M 60.65625 -0.828125 L 61.40625 -0.828125 L 61.40625 0 L 35.171875 0 L 35.171875 -0.828125 L 35.921875 -0.828125 C 37.128906 -0.828125 38.019531 -1.195312 38.59375 -1.9375 C 39.164062 -2.675781 39.453125 -3.375 39.453125 -4.03125 C 39.453125 -4.6875 39.316406 -5.34375 39.046875 -6 L 35.015625 -16.109375 L 15.78125 -16.109375 L 11.5 -6 C 11.226562 -5.289062 11.09375 -4.617188 11.09375 -3.984375 C 11.09375 -3.359375 11.394531 -2.675781 12 -1.9375 C 12.601562 -1.195312 13.503906 -0.828125 14.703125 -0.828125 L 15.375 -0.828125 L 15.375 0 L -2.21875 0 L -2.21875 -0.828125 L -1.484375 -0.828125 C -0.222656 -0.828125 1.035156 -1.207031 2.296875 -1.96875 C 3.554688 -2.738281 4.597656 -3.890625 5.421875 -5.421875 L 24.40625 -48.421875 C 26.988281 -53.847656 28.359375 -57.4375 28.515625 -59.1875 L 29.265625 -59.1875 L 53.671875 -5.59375 C 54.492188 -4 55.535156 -2.804688 56.796875 -2.015625 C 58.054688 -1.222656 59.34375 -0.828125 60.65625 -0.828125 Z M 17.171875 -19.5625 L 33.609375 -19.5625 L 25.640625 -39.78125 Z M 17.171875 -19.5625 "/></g></g></g><g fill="#6d412a" fill-opacity="1"><g transform="translate(481.141265, 386.037376)"><g><path d="M 3.5625 -21.921875 L 5.890625 -21.921875 L 5.890625 0 L 3.5625 0 Z M 3.5625 -21.921875 "/></g></g></g><g fill="#6d412a" fill-opacity="1"><g transform="translate(497.520435, 386.037376)"><g><path d="M 9.609375 0.1875 C 7.984375 0.1875 6.421875 -0.0703125 4.921875 -0.59375 C 3.429688 -1.113281 2.28125 -1.800781 1.46875 -2.65625 L 2.375 -4.453125 C 3.164062 -3.648438 4.21875 -3.003906 5.53125 -2.515625 C 6.851562 -2.023438 8.210938 -1.78125 9.609375 -1.78125 C 11.578125 -1.78125 13.050781 -2.140625 14.03125 -2.859375 C 15.007812 -3.585938 15.5 -4.523438 15.5 -5.671875 C 15.5 -6.546875 15.234375 -7.242188 14.703125 -7.765625 C 14.171875 -8.285156 13.515625 -8.6875 12.734375 -8.96875 C 11.960938 -9.25 10.890625 -9.554688 9.515625 -9.890625 C 7.867188 -10.304688 6.554688 -10.707031 5.578125 -11.09375 C 4.597656 -11.476562 3.753906 -12.066406 3.046875 -12.859375 C 2.347656 -13.660156 2 -14.738281 2 -16.09375 C 2 -17.195312 2.289062 -18.203125 2.875 -19.109375 C 3.457031 -20.023438 4.351562 -20.753906 5.5625 -21.296875 C 6.78125 -21.835938 8.285156 -22.109375 10.078125 -22.109375 C 11.335938 -22.109375 12.566406 -21.9375 13.765625 -21.59375 C 14.960938 -21.25 16 -20.773438 16.875 -20.171875 L 16.09375 -18.3125 C 15.175781 -18.914062 14.191406 -19.367188 13.140625 -19.671875 C 12.097656 -19.984375 11.078125 -20.140625 10.078125 -20.140625 C 8.160156 -20.140625 6.71875 -19.765625 5.75 -19.015625 C 4.78125 -18.273438 4.296875 -17.320312 4.296875 -16.15625 C 4.296875 -15.28125 4.5625 -14.578125 5.09375 -14.046875 C 5.625 -13.515625 6.289062 -13.109375 7.09375 -12.828125 C 7.894531 -12.546875 8.972656 -12.238281 10.328125 -11.90625 C 11.941406 -11.5 13.242188 -11.101562 14.234375 -10.71875 C 15.222656 -10.332031 16.0625 -9.75 16.75 -8.96875 C 17.4375 -8.1875 17.78125 -7.128906 17.78125 -5.796875 C 17.78125 -4.691406 17.484375 -3.679688 16.890625 -2.765625 C 16.296875 -1.859375 15.382812 -1.140625 14.15625 -0.609375 C 12.925781 -0.078125 11.410156 0.1875 9.609375 0.1875 Z M 9.609375 0.1875 "/></g></g></g><g fill="#6d412a" fill-opacity="1"><g transform="translate(523.70209, 386.037376)"><g><path d="M 3.5625 -21.921875 L 5.890625 -21.921875 L 5.890625 -2 L 18.15625 -2 L 18.15625 0 L 3.5625 0 Z M 3.5625 -21.921875 "/></g></g></g><g fill="#6d412a" fill-opacity="1"><g transform="translate(549.069497, 386.037376)"><g><path d="M 17.3125 -5.859375 L 5.109375 -5.859375 L 2.46875 0 L 0.0625 0 L 10.078125 -21.921875 L 12.375 -21.921875 L 22.390625 0 L 19.953125 0 Z M 16.46875 -7.734375 L 11.203125 -19.5 L 5.953125 -7.734375 Z M 16.46875 -7.734375 "/></g></g></g><g fill="#6d412a" fill-opacity="1"><g transform="translate(578.445585, 386.037376)"><g><path d="M 26.328125 -21.921875 L 26.328125 0 L 24.109375 0 L 24.109375 -17.53125 L 15.5 -2.78125 L 14.40625 -2.78125 L 5.796875 -17.4375 L 5.796875 0 L 3.5625 0 L 3.5625 -21.921875 L 5.484375 -21.921875 L 15 -5.671875 L 24.421875 -21.921875 Z M 26.328125 -21.921875 "/></g></g></g><g fill="#6d412a" fill-opacity="1"><g transform="translate(615.275312, 386.037376)"><g><path d="M 3.5625 -21.921875 L 5.890625 -21.921875 L 5.890625 0 L 3.5625 0 Z M 3.5625 -21.921875 "/></g></g></g><g fill="#6d412a" fill-opacity="1"><g transform="translate(631.654484, 386.037376)"><g><path d="M 13.09375 0.1875 C 10.914062 0.1875 8.957031 -0.289062 7.21875 -1.25 C 5.476562 -2.207031 4.109375 -3.535156 3.109375 -5.234375 C 2.117188 -6.941406 1.625 -8.847656 1.625 -10.953125 C 1.625 -13.066406 2.117188 -14.972656 3.109375 -16.671875 C 4.109375 -18.367188 5.484375 -19.695312 7.234375 -20.65625 C 8.984375 -21.625 10.945312 -22.109375 13.125 -22.109375 C 14.75 -22.109375 16.25 -21.835938 17.625 -21.296875 C 19.007812 -20.753906 20.179688 -19.957031 21.140625 -18.90625 L 19.671875 -17.4375 C 17.953125 -19.175781 15.789062 -20.046875 13.1875 -20.046875 C 11.445312 -20.046875 9.867188 -19.644531 8.453125 -18.84375 C 7.035156 -18.050781 5.921875 -16.96875 5.109375 -15.59375 C 4.304688 -14.21875 3.90625 -12.671875 3.90625 -10.953125 C 3.90625 -9.242188 4.304688 -7.703125 5.109375 -6.328125 C 5.921875 -4.953125 7.035156 -3.863281 8.453125 -3.0625 C 9.867188 -2.269531 11.445312 -1.875 13.1875 -1.875 C 15.8125 -1.875 17.972656 -2.753906 19.671875 -4.515625 L 21.140625 -3.03125 C 20.179688 -1.988281 19.003906 -1.191406 17.609375 -0.640625 C 16.222656 -0.0859375 14.71875 0.1875 13.09375 0.1875 Z M 13.09375 0.1875 "/></g></g></g><g fill="#6d412a" fill-opacity="1"><g transform="translate(661.093213, 386.037376)"><g/></g></g><g fill="#6d412a" fill-opacity="1"><g transform="translate(676.219691, 386.037376)"><g><path d="M 13.09375 0.1875 C 10.914062 0.1875 8.957031 -0.289062 7.21875 -1.25 C 5.476562 -2.207031 4.109375 -3.535156 3.109375 -5.234375 C 2.117188 -6.941406 1.625 -8.847656 1.625 -10.953125 C 1.625 -13.066406 2.117188 -14.972656 3.109375 -16.671875 C 4.109375 -18.367188 5.484375 -19.695312 7.234375 -20.65625 C 8.984375 -21.625 10.945312 -22.109375 13.125 -22.109375 C 14.75 -22.109375 16.25 -21.835938 17.625 -21.296875 C 19.007812 -20.753906 20.179688 -19.957031 21.140625 -18.90625 L 19.671875 -17.4375 C 17.953125 -19.175781 15.789062 -20.046875 13.1875 -20.046875 C 11.445312 -20.046875 9.867188 -19.644531 8.453125 -18.84375 C 7.035156 -18.050781 5.921875 -16.96875 5.109375 -15.59375 C 4.304688 -14.21875 3.90625 -12.671875 3.90625 -10.953125 C 3.90625 -9.242188 4.304688 -7.703125 5.109375 -6.328125 C 5.921875 -4.953125 7.035156 -3.863281 8.453125 -3.0625 C 9.867188 -2.269531 11.445312 -1.875 13.1875 -1.875 C 15.8125 -1.875 17.972656 -2.753906 19.671875 -4.515625 L 21.140625 -3.03125 C 20.179688 -1.988281 19.003906 -1.191406 17.609375 -0.640625 C 16.222656 -0.0859375 14.71875 0.1875 13.09375 0.1875 Z M 13.09375 0.1875 "/></g></g></g><g fill="#6d412a" fill-opacity="1"><g transform="translate(705.65842, 386.037376)"><g><path d="M 19.0625 -2 L 19.0625 0 L 3.5625 0 L 3.5625 -21.921875 L 18.59375 -21.921875 L 18.59375 -19.921875 L 5.890625 -19.921875 L 5.890625 -12.125 L 17.21875 -12.125 L 17.21875 -10.140625 L 5.890625 -10.140625 L 5.890625 -2 Z M 19.0625 -2 "/></g></g></g><g fill="#6d412a" fill-opacity="1"><g transform="translate(733.531253, 386.037376)"><g><path d="M 21.890625 -21.921875 L 21.890625 0 L 19.984375 0 L 5.890625 -17.78125 L 5.890625 0 L 3.5625 0 L 3.5625 -21.921875 L 5.484375 -21.921875 L 19.609375 -4.140625 L 19.609375 -21.921875 Z M 21.890625 -21.921875 "/></g></g></g><g fill="#6d412a" fill-opacity="1"><g transform="translate(765.913853, 386.037376)"><g><path d="M 7.828125 -19.921875 L 0.125 -19.921875 L 0.125 -21.921875 L 17.84375 -21.921875 L 17.84375 -19.921875 L 10.140625 -19.921875 L 10.140625 0 L 7.828125 0 Z M 7.828125 -19.921875 "/></g></g></g><g fill="#6d412a" fill-opacity="1"><g transform="translate(790.811474, 386.037376)"><g><path d="M 19.0625 -2 L 19.0625 0 L 3.5625 0 L 3.5625 -21.921875 L 18.59375 -21.921875 L 18.59375 -19.921875 L 5.890625 -19.921875 L 5.890625 -12.125 L 17.21875 -12.125 L 17.21875 -10.140625 L 5.890625 -10.140625 L 5.890625 -2 Z M 19.0625 -2 "/></g></g></g><g fill="#6d412a" fill-opacity="1"><g transform="translate(818.684287, 386.037376)"><g><path d="M 18.53125 0 L 13.53125 -7.046875 C 12.96875 -6.984375 12.382812 -6.953125 11.78125 -6.953125 L 5.890625 -6.953125 L 5.890625 0 L 3.5625 0 L 3.5625 -21.921875 L 11.78125 -21.921875 C 14.570312 -21.921875 16.757812 -21.25 18.34375 -19.90625 C 19.9375 -18.570312 20.734375 -16.738281 20.734375 -14.40625 C 20.734375 -12.695312 20.296875 -11.25 19.421875 -10.0625 C 18.554688 -8.882812 17.320312 -8.035156 15.71875 -7.515625 L 21.078125 0 Z M 11.703125 -8.921875 C 13.878906 -8.921875 15.539062 -9.398438 16.6875 -10.359375 C 17.832031 -11.328125 18.40625 -12.675781 18.40625 -14.40625 C 18.40625 -16.175781 17.832031 -17.535156 16.6875 -18.484375 C 15.539062 -19.441406 13.878906 -19.921875 11.703125 -19.921875 L 5.890625 -19.921875 L 5.890625 -8.921875 Z M 11.703125 -8.921875 "/></g></g></g></svg>